<svg width="360" height="117" viewBox="0 0 360 117" fill="none" xmlns="http://www.w3.org/2000/svg">
<path d="M129.421 58.5C129.421 74.6427 128.742 89.2497 127.647 99.8142C127.099 105.1 126.449 109.357 125.732 112.284C125.372 113.751 125.002 114.857 124.633 115.586C124.448 115.951 124.276 116.195 124.127 116.341C123.979 116.486 123.891 116.5 123.857 116.5C123.823 116.5 123.734 116.486 123.587 116.341C123.437 116.195 123.266 115.951 123.081 115.586C122.712 114.857 122.342 113.751 121.982 112.284C121.265 109.357 120.614 105.1 120.066 99.8142C118.971 89.2497 118.293 74.6427 118.293 58.5C118.293 42.3573 118.971 27.7503 120.066 17.1858C120.614 11.9005 121.265 7.64341 121.982 4.71624C122.342 3.24862 122.712 2.14284 123.081 1.41446C123.266 1.04932 123.437 0.805482 123.587 0.659187C123.734 0.514379 123.823 0.5 123.857 0.5C123.891 0.5 123.979 0.514379 124.127 0.659187C124.276 0.805482 124.448 1.04932 124.633 1.41446C125.002 2.14284 125.372 3.24862 125.732 4.71624C126.449 7.64341 127.099 11.9005 127.647 17.1858C128.742 27.7503 129.421 42.3573 129.421 58.5Z" fill="#C0C0B7" stroke="#C0C0B7"/>
<path fill-rule="evenodd" clip-rule="evenodd" d="M61.0481 97.1336C67.3522 87.4712 71.4147 73.8263 71.4147 58.5C71.4147 43.1737 67.3522 29.5288 61.0481 19.8664C59.4582 17.4295 57.7525 15.2792 55.9582 13.4253C56.7725 11.7986 57.6316 10.2979 58.5304 8.93536C69.274 19.2856 76.4147 37.6147 76.4147 58.5C76.4147 79.3853 69.274 97.7144 58.5304 108.065C57.6316 106.702 56.7725 105.201 55.9582 103.575C57.7525 101.721 59.4582 99.5705 61.0481 97.1336ZM86.9359 103.469C82.7307 111.918 77.3218 117 71.4208 117C66.6843 117 62.2649 113.726 58.5304 108.065C52.6542 113.726 45.7001 117 38.247 117C17.1676 117 0.0793457 90.8087 0.0793457 58.5C0.0793457 26.1913 17.1676 0 38.247 0C45.7001 0 52.6542 3.27421 58.5304 8.93536C62.2649 3.27421 66.6843 0 71.4208 0C77.3218 0 82.7307 5.0821 86.9359 13.5305C83.5583 24.2614 81.4086 40.4232 81.4086 58.5C81.4086 76.5768 83.5583 92.7386 86.9359 103.469ZM90.0747 95.8956C89.1262 98.6446 88.0752 101.181 86.9359 103.469C89.5951 111.918 93.0154 117 96.747 117C105.218 117 112.085 90.8087 112.085 58.5C112.085 26.1913 105.218 0 96.747 0C93.0154 0 89.5951 5.0821 86.9359 13.5305C88.0752 15.8194 89.1262 18.3554 90.0747 21.1044C87.8189 30.9322 86.4086 44.0171 86.4086 58.5C86.4086 72.9829 87.8189 86.0678 90.0747 95.8956ZM90.0747 95.8956C93.5729 85.7568 95.6769 72.721 95.6769 58.5C95.6769 44.279 93.5729 31.2432 90.0747 21.1044C90.2882 20.174 90.5094 19.2728 90.7376 18.4024C92.0668 13.3328 93.5649 9.58902 95.0263 7.23161C95.8545 5.89557 96.4468 5.34117 96.747 5.11899C97.0471 5.34117 97.6395 5.89557 98.4677 7.23161C99.929 9.58902 101.427 13.3328 102.756 18.4024C105.395 28.4673 107.085 42.646 107.085 58.5C107.085 74.354 105.395 88.5327 102.756 98.5976C101.427 103.667 99.929 107.411 98.4677 109.768C97.6395 111.104 97.0471 111.659 96.747 111.881C96.4468 111.659 95.8545 111.104 95.0263 109.768C93.5649 107.411 92.0668 103.667 90.7376 98.5976C90.5094 97.7272 90.2882 96.826 90.0747 95.8956ZM47.1647 58.5C47.1647 76.636 50.5866 92.8444 55.9582 103.575C50.6044 109.106 44.4612 112 38.247 112C29.9501 112 21.7797 106.842 15.4459 97.1336C9.14181 87.4712 5.07935 73.8263 5.07935 58.5C5.07935 43.1737 9.14181 29.5288 15.4459 19.8664C21.7797 10.1585 29.9501 5 38.247 5C44.4612 5 50.6044 7.89374 55.9582 13.4253C50.5866 24.1556 47.1647 40.364 47.1647 58.5Z" fill="#C0C0B7"/>
<path d="M193.711 36.7273C193.711 39.8793 193.164 42.6335 192.07 44.9901C190.977 47.3366 189.455 49.1612 187.506 50.4638C185.567 51.7663 183.33 52.4176 180.795 52.4176C178.249 52.4176 176.002 51.7663 174.053 50.4638C172.114 49.1513 170.598 47.3217 169.504 44.9751C168.411 42.6186 167.864 39.8693 167.864 36.7273C167.864 33.5753 168.411 30.826 169.504 28.4794C170.608 26.1328 172.129 24.3082 174.068 23.0057C176.007 21.6932 178.249 21.0369 180.795 21.0369C183.33 21.0369 185.567 21.6882 187.506 22.9908C189.455 24.2933 190.977 26.1229 192.07 28.4794C193.164 30.826 193.711 33.5753 193.711 36.7273ZM191.891 36.7273C191.891 33.8935 191.414 31.4375 190.46 29.3594C189.515 27.2812 188.207 25.6754 186.537 24.5419C184.866 23.3984 182.952 22.8267 180.795 22.8267C178.637 22.8267 176.723 23.3935 175.053 24.527C173.382 25.6506 172.07 27.2564 171.115 29.3445C170.17 31.4226 169.698 33.8835 169.698 36.7273C169.698 39.5412 170.165 41.9922 171.1 44.0803C172.045 46.1584 173.352 47.7692 175.023 48.9126C176.693 50.0561 178.617 50.6278 180.795 50.6278C182.952 50.6278 184.866 50.0611 186.537 48.9276C188.207 47.7841 189.515 46.1733 190.46 44.0952C191.414 42.017 191.891 39.5611 191.891 36.7273ZM198.98 52L199.696 47.794L217.922 27.4503H203.052L204.066 21.4545H228.228L227.527 25.6605L209.272 46.0043H224.156L223.142 52H198.98Z" fill="#C0C0B7"/>
<path d="M168.15 99.05V72.8H170.81V75.67H171.02C171.475 75.005 173.19 72.345 177.145 72.345C182.325 72.345 186.035 76.3 186.035 81.865C186.035 87.5 182.5 91.455 177.355 91.455C173.54 91.455 171.72 89.18 171.125 88.06H170.915V99.05H168.15ZM177.04 88.935C180.61 88.935 183.2 86.03 183.2 81.865C183.2 77.595 180.47 74.865 176.97 74.865C173.19 74.865 170.81 78.05 170.81 81.865C170.81 86.345 173.61 88.935 177.04 88.935ZM189.198 91V72.8H191.928V75.845H192.138C192.663 74.305 194.448 72.345 197.108 72.345H198.298V75.11H196.653C193.328 75.11 191.963 77.805 191.963 81.27V91H189.198ZM208.487 91.455C203.027 91.455 199.002 87.43 199.002 81.9C199.002 76.405 203.097 72.345 208.522 72.345C214.017 72.345 218.007 76.44 218.007 81.9C218.007 87.36 213.947 91.455 208.487 91.455ZM208.487 88.935C212.407 88.935 215.172 85.96 215.172 81.9C215.172 77.875 212.407 74.865 208.487 74.865C204.567 74.865 201.837 77.91 201.837 81.9C201.837 85.995 204.602 88.935 208.487 88.935ZM228.632 91.455C223.452 91.455 219.742 87.5 219.742 81.935C219.742 76.335 223.277 72.345 228.422 72.345C232.237 72.345 234.092 74.795 234.652 75.74H234.862V64.75H237.627V91H234.967V88.13H234.757C234.302 88.795 232.587 91.455 228.632 91.455ZM228.807 88.97C232.587 88.97 234.967 85.75 234.967 81.97C234.967 77.455 232.167 74.865 228.737 74.865C225.167 74.865 222.577 77.805 222.577 81.97C222.577 86.205 225.272 88.97 228.807 88.97ZM248.254 91.455C244.019 91.455 241.464 88.27 241.464 84.245V72.8H244.229V84.14C244.229 87.045 246.364 88.935 248.919 88.935C251.789 88.935 254.029 86.73 254.029 83.72V72.8H256.794V91H254.029V88.34H253.819C253.049 89.985 251.089 91.455 248.254 91.455ZM268.927 91.455C263.432 91.455 259.582 87.29 259.582 81.9C259.582 76.51 263.537 72.345 268.892 72.345C272.847 72.345 276.347 74.725 277.327 78.785L274.597 79.415C274.107 76.685 271.797 74.865 268.962 74.865C265.077 74.865 262.452 77.945 262.452 81.9C262.452 85.995 265.217 88.935 269.032 88.935C271.867 88.935 274.177 87.115 274.667 84.385L277.397 85.015C276.417 89.075 272.882 91.455 268.927 91.455ZM287.77 91C284.445 91 282.24 89.495 282.24 85.82V75.145H278.81V72.8H282.415V67.515H285.005V72.8H290.605V75.145H285.005V85.785C285.005 87.745 285.81 88.585 287.735 88.585H290.36V91H287.77ZM297.663 69.51C296.508 69.51 295.668 68.635 295.668 67.48C295.668 66.36 296.508 65.485 297.663 65.485C298.853 65.485 299.693 66.36 299.693 67.48C299.693 68.635 298.853 69.51 297.663 69.51ZM296.298 91V75.145H292.868V72.8H299.063V91H296.298ZM312.318 91.455C306.858 91.455 302.833 87.43 302.833 81.9C302.833 76.405 306.928 72.345 312.353 72.345C317.848 72.345 321.838 76.44 321.838 81.9C321.838 87.36 317.778 91.455 312.318 91.455ZM312.318 88.935C316.238 88.935 319.003 85.96 319.003 81.9C319.003 77.875 316.238 74.865 312.318 74.865C308.398 74.865 305.668 77.91 305.668 81.9C305.668 85.995 308.433 88.935 312.318 88.935ZM324.973 91V72.8H327.738V75.46H327.948C328.718 73.815 330.678 72.345 333.513 72.345C337.748 72.345 340.303 75.53 340.303 79.555V91H337.538V79.73C337.538 76.825 335.403 74.935 332.848 74.935C329.978 74.935 327.738 77.14 327.738 80.15V91H324.973ZM350.537 91.455C346.442 91.455 343.887 89.215 343.467 85.96L345.987 85.33C346.197 87.78 347.912 89.04 350.677 89.04C353.407 89.04 354.912 87.71 354.912 85.855C354.912 80.745 344.027 84.63 344.027 77.42C344.027 74.34 346.792 72.345 350.607 72.345C353.757 72.345 356.802 74.165 357.222 77.455L354.807 78.155C354.562 76.02 352.812 74.725 350.432 74.725C348.157 74.725 346.687 75.845 346.687 77.42C346.687 82.04 357.607 78.19 357.607 85.715C357.607 89.145 354.772 91.455 350.537 91.455Z" fill="#C0C0B7"/>
</svg>
